:SAMPLES-PER-SECOND 30
:FULLY-SPECIFIED
:DEGREES
64
root  65.9525 34.2483 6.12971 4.44281 -87.7818 -0.437026
RightUpLeg  -45.651 -10.5335 -4.63319
RightLeg  36.8479 3.50411 2.55291
RightFoot  -7.63952 -0.344342 10.119
RightToes  1.45519e-009 0 -3.6325e-017
Spine  33.9524 -0.317859 0.978243
Spine1  4.50128 -0.273819 1.13106
HEad  -32.4875 -1.36397 -1.60629
LeftShoulder1  0.382425 2.17956 -22.5214
LeftArm  6.67255 -21.1801 -63.0024
LeftForeArm  68.3186 -79.2367 -75.3955
LeftHand  0.0471904 6.93817 5.86941
RightShoulder  -0.248829 -4.24083 26.3345
RightArm  10.5551 4.2639 47.983
RightForeArm  155.552 69.5171 152.126
RightHand  -0.209986 4.69645 -2.75983
LeftUpLeg  -32.9271 10.9094 0.79076
LeftLeg  56.9292 2.14886 4.08959
LeftFoot  -25.9547 0.13196 -0.188983
LeftToes  -2.53752e-010 -2.07034e-011 -2.70101e-011
65
root  65.3757 33.8838 5.80936 5.08295 -87.3428 -1.13652
RightUpLeg  -46.8036 -8.91788 -4.55978
RightLeg  39.9319 2.73789 2.16484
RightFoot  -2.3877 -0.529124 6.31788
RightToes  1.45519e-009 0 -3.6325e-017
Spine  34.4122 -0.469782 2.04018
Spine1  4.80626 -0.346782 1.5233
HEad  -32.7948 -1.59322 -2.05112
LeftShoulder1  0.365392 2.24562 -22.6931
LeftArm  7.3656 -21.0371 -63.5899
LeftForeArm  66.6977 -79.1527 -73.5269
LeftHand  0.0437824 7.25667 4.76194
RightShoulder  -0.247728 -4.23091 26.6295
RightArm  10.7226 3.83055 48.2124
RightForeArm  156.789 69.9331 151.697
RightHand  -0.0580353 5.65599 -0.978628
LeftUpLeg  -32.8429 10.5185 1.73574
LeftLeg  59.0523 1.88181 3.96649
LeftFoot  -27.94 0.0166864 -1.0328
LeftToes  -2.53752e-010 -2.07034e-011 -2.70101e-011
66
root  64.7409 33.5406 5.51512 10.9054 -86.5742 -7.92958
RightUpLeg  -47.0081 -8.39407 -4.384
RightLeg  44.2538 2.04443 1.83967
RightFoot  -3.1412 -0.429617 5.68354
RightToes  1.45519e-009 0 -3.6325e-017
Spine  35.8757 -1.45755 4.03071
Spine1  4.63778 -0.42194 0.48767
HEad  -34.5828 -3.18493 -1.27641
LeftShoulder1  0.357375 2.2922 -23.1716
LeftArm  7.80146 -20.7885 -63.5503
LeftForeArm  65.8253 -79.1096 -73.3503
LeftHand  0.070869 7.33797 6.09242
RightShoulder  -0.214384 -4.13026 26.5438
RightArm  11.1926 3.51441 48.8997
RightForeArm  156.341 70.4801 150.82
RightHand  -0.20255 4.36 -2.71614
LeftUpLeg  -31.6114 9.41594 3.24735
LeftLeg  61.2143 1.8607 4.2802
LeftFoot  -29.932 -0.162051 -2.094
LeftToes  -2.53752e-010 -2.07034e-011 -2.70101e-011
67
root  64.0774 33.2586 5.21331 6.79616 -85.5865 -4.61416
RightUpLeg  -47.0489 -8.88431 -4.30198
RightLeg  48.1068 1.89443 1.9042
RightFoot  -4.30614 -0.276827 4.01818
RightToes  1.45519e-009 0 -3.6325e-017
Spine  36.8808 -2.58145 5.53829
Spine1  4.74944 -0.838492 -0.390835
HEad  -38.9091 -4.43106 -1.50135
LeftShoulder1  0.368724 2.28984 -24.0826
LeftArm  7.9135 -20.8691 -62.9801
LeftForeArm  65.0566 -79.0663 -72.6283
LeftHand  0.0602824 7.22211 5.80709
RightShoulder  -0.109349 -3.81617 26.0273
RightArm  11.4579 3.71004 49.3939
RightForeArm  156.99 71.0173 150.07
RightHand  -0.106905 5.32255 -1.50299
LeftUpLeg  -30.226 8.21376 4.17492
LeftLeg  62.6492 1.68185 4.17573
LeftFoot  -31.6784 -0.347618 -3.00215
LeftToes  -2.53752e-010 -2.07034e-011 -2.70101e-011
68
root  63.3493 32.8631 4.63809 -10.1393 -85.758 13.5539
RightUpLeg  -49.7706 -7.87851 -4.90411
RightLeg  52.6784 1.20227 1.31833
RightFoot  -6.90467 -0.166485 3.06274
RightToes  1.45519e-009 0 -3.6325e-017
Spine  36.5381 -1.33867 3.45322
Spine1  3.5092 -0.755994 1.82453
HEad  -38.4236 -4.59544 -2.02328
LeftShoulder1  0.409946 2.19287 -25.0525
LeftArm  7.96406 -19.7513 -62.5314
LeftForeArm  65.0269 -79.0602 -72.3557
LeftHand  0.0612705 7.35943 5.47186
RightShoulder  -0.0228229 -3.54764 25.95
RightArm  12.3973 4.00188 48.7934
RightForeArm  157.355 71.4956 149.33
RightHand  -0.166681 3.55332 -2.37269
LeftUpLeg  -30.8547 8.40842 3.96404
LeftLeg  64.2489 1.44906 3.96192
LeftFoot  -33.0829 -0.57956 -4.05619
LeftToes  -2.53752e-010 -2.07034e-011 -2.70101e-011
69
root  62.6344 32.6809 4.23924 -14.8764 -85.2258 18.3677
RightUpLeg  -50.1351 -8.53353 -4.62912
RightLeg  55.6232 1.184 1.43748
RightFoot  -9.07829 -0.096169 1.80035
RightToes  1.45519e-009 0 -3.6325e-017
Spine  35.4294 -1.50304 4.05326
Spine1  5.0032 -0.804188 1.78963
HEad  -38.6012 -5.23297 -2.18298
LeftShoulder1  0.462753 1.98254 -24.1427
LeftArm  7.94505 -19.8376 -64.0528
LeftForeArm  62.3683 -78.8863 -69.5606
LeftHand  0.0980652 8.13457 5.65162
RightShoulder  -0.0191458 -3.53709 25.5746
RightArm  12.2344 4.83999 48.8803
RightForeArm  156.591 72.1575 148.057
RightHand  -0.2276 5.51321 -2.73758
LeftUpLeg  -29.8805 7.88538 4.51562
LeftLeg  64.8839 1.34682 3.84116
LeftFoot  -34.0683 -0.823949 -5.12361
LeftToes  -2.53752e-010 -2.07034e-011 -2.70101e-011
70
root  61.8897 32.6546 3.83532 -17.5638 -84.7351 21.0742
RightUpLeg  -49.7493 -9.09357 -4.25718
RightLeg  57.5454 1.12657 1.4509
RightFoot  -10.9916 -0.0777157 0.793225
RightToes  1.45519e-009 0 -3.6325e-017
Spine  34.8897 -1.85021 4.80946
Spine1  5.42611 -0.835973 1.32593
HEad  -38.7008 -5.31271 -2.02031
LeftShoulder1  0.457098 1.97681 -23.652
LeftArm  8.1609 -19.7988 -64.7135
LeftForeArm  61.9054 -78.8593 -69.3926
LeftHand  0.0878804 7.92263 5.5028
RightShoulder  -0.00109201 -3.47985 25.3063
RightArm  12.3371 5.76003 49.0727
RightForeArm  156.459 72.5871 147.237
RightHand  -0.108351 5.45754 -1.4769
LeftUpLeg  -28.6963 7.15622 5.29417
LeftLeg  65.1849 1.13442 3.38527
LeftFoot  -33.8373 -1.15983 -6.85326
LeftToes  -2.53752e-010 -2.07034e-011 -2.70101e-011
